<?xml version="1.0" standalone="no"?>
<!DOCTYPE svg PUBLIC "-//W3C//DTD SVG 20010904//EN"
 "http://www.w3.org/TR/2001/REC-SVG-20010904/DTD/svg10.dtd">
<svg version="1.0" xmlns="http://www.w3.org/2000/svg"
 width="96.000000pt" height="96.000000pt" viewBox="0 0 96.000000 96.000000"
 preserveAspectRatio="xMidYMid meet">

<g transform="translate(0.000000,96.000000) scale(0.100000,-0.100000)"
fill="#000000" stroke="none">
<path d="M435 833 c-16 -3 -93 -17 -170 -33 -120 -24 -143 -32 -162 -55 -13
-14 -23 -35 -23 -46 0 -23 51 -79 72 -79 7 0 85 21 173 46 197 57 279 65 410
36 97 -21 111 -20 120 9 9 28 -1 38 -74 71 -114 51 -229 68 -346 51z"/>
<path d="M445 505 c-3 -8 -7 -22 -10 -30 -2 -8 -16 -15 -30 -15 -23 0 -25 -4
-25 -41 0 -90 107 -134 171 -70 62 62 20 171 -66 171 -23 0 -37 -5 -40 -15z"/>
</g>
</svg>
